<svg xmlns="http://www.w3.org/2000/svg" width="780" height="420" font-family="Arial,sans-serif" font-size="13">
  <!-- Background -->
  <rect width="780" height="420" fill="white" stroke="none"/>

  <!-- Title -->
  <text x="390" y="30" text-anchor="middle" font-size="15" font-weight="bold">Two-Tower vs Cross-Encoder Architecture</text>

  <!-- ── TWO-TOWER (left panel) ────────────────────────── -->
  <text x="195" y="60" text-anchor="middle" font-size="14" font-weight="bold" fill="#1a6bb5">Two-Tower MLP</text>

  <!-- TF Input -->
  <rect x="60" y="80" width="120" height="36" rx="6" fill="#dbeeff" stroke="#1a6bb5" stroke-width="1.5"/>
  <text x="120" y="103" text-anchor="middle" fill="#1a6bb5">TF: embed(512) ‖ expr(11)</text>

  <!-- Gene Input -->
  <rect x="210" y="80" width="130" height="36" rx="6" fill="#dbeeff" stroke="#1a6bb5" stroke-width="1.5"/>
  <text x="275" y="103" text-anchor="middle" fill="#1a6bb5">Gene: embed(512) ‖ expr(11)</text>

  <!-- TF FC1 -->
  <rect x="75" y="152" width="90" height="30" rx="4" fill="#b3d4f5" stroke="#1a6bb5" stroke-width="1.5"/>
  <text x="120" y="172" text-anchor="middle">FC(512) + ReLU</text>

  <!-- Gene FC1 -->
  <rect x="225" y="152" width="100" height="30" rx="4" fill="#b3d4f5" stroke="#1a6bb5" stroke-width="1.5"/>
  <text x="275" y="172" text-anchor="middle">FC(512) + ReLU</text>

  <!-- TF FC2 -->
  <rect x="75" y="218" width="90" height="30" rx="4" fill="#b3d4f5" stroke="#1a6bb5" stroke-width="1.5"/>
  <text x="120" y="238" text-anchor="middle">FC(512)</text>

  <!-- Gene FC2 -->
  <rect x="225" y="218" width="100" height="30" rx="4" fill="#b3d4f5" stroke="#1a6bb5" stroke-width="1.5"/>
  <text x="275" y="238" text-anchor="middle">FC(512)</text>

  <!-- z_TF label -->
  <text x="120" y="280" text-anchor="middle" font-style="italic" fill="#1a6bb5">z_TF ∈ ℝ⁵¹²</text>

  <!-- z_Gene label -->
  <text x="275" y="280" text-anchor="middle" font-style="italic" fill="#1a6bb5">z_Gene ∈ ℝ⁵¹²</text>

  <!-- Cosine similarity node -->
  <ellipse cx="197" cy="320" rx="60" ry="22" fill="#fff3b0" stroke="#c8a000" stroke-width="2"/>
  <text x="197" y="325" text-anchor="middle" font-weight="bold">cos(z_TF, z_Gene)/τ</text>

  <!-- Score output -->
  <rect x="152" y="368" width="90" height="28" rx="4" fill="#d4edda" stroke="#28a745" stroke-width="1.5"/>
  <text x="197" y="387" text-anchor="middle">σ(score) ∈ [0,1]</text>

  <!-- Arrows: TF path -->
  <line x1="120" y1="116" x2="120" y2="152" stroke="#555" stroke-width="1.5" marker-end="url(#arr)"/>
  <line x1="120" y1="182" x2="120" y2="218" stroke="#555" stroke-width="1.5" marker-end="url(#arr)"/>
  <line x1="120" y1="248" x2="160" y2="302" stroke="#555" stroke-width="1.5" marker-end="url(#arr)"/>

  <!-- Arrows: Gene path -->
  <line x1="275" y1="116" x2="275" y2="152" stroke="#555" stroke-width="1.5" marker-end="url(#arr)"/>
  <line x1="275" y1="182" x2="275" y2="218" stroke="#555" stroke-width="1.5" marker-end="url(#arr)"/>
  <line x1="275" y1="248" x2="234" y2="302" stroke="#555" stroke-width="1.5" marker-end="url(#arr)"/>

  <!-- Arrow: cosine to score -->
  <line x1="197" y1="342" x2="197" y2="368" stroke="#555" stroke-width="1.5" marker-end="url(#arr)"/>

  <!-- Param count -->
  <text x="197" y="412" text-anchor="middle" font-size="11" fill="#555">5,581,824 parameters</text>

  <!-- ── DIVIDER ───────────────────────────────────────── -->
  <line x1="390" y1="50" x2="390" y2="410" stroke="#ccc" stroke-width="1.5" stroke-dasharray="6,4"/>

  <!-- ── CROSS-ENCODER (right panel) ──────────────────── -->
  <text x="585" y="60" text-anchor="middle" font-size="14" font-weight="bold" fill="#b5341a">Cross-Encoder MLP</text>

  <!-- Joint input box -->
  <rect x="450" y="80" width="270" height="52" rx="6" fill="#ffe5de" stroke="#b5341a" stroke-width="1.5"/>
  <text x="585" y="101" text-anchor="middle" fill="#b5341a">[TF_emb ‖ Gene_emb ‖</text>
  <text x="585" y="120" text-anchor="middle" fill="#b5341a">TF_emb⊙Gene_emb ‖ expr] = 1558-dim</text>

  <!-- FC1 -->
  <rect x="510" y="170" width="150" height="30" rx="4" fill="#ffc4b5" stroke="#b5341a" stroke-width="1.5"/>
  <text x="585" y="190" text-anchor="middle">FC(512) + ReLU</text>

  <!-- FC2 -->
  <rect x="510" y="236" width="150" height="30" rx="4" fill="#ffc4b5" stroke="#b5341a" stroke-width="1.5"/>
  <text x="585" y="256" text-anchor="middle">FC(512) + ReLU</text>

  <!-- FC3 -->
  <rect x="535" y="302" width="100" height="30" rx="4" fill="#ffc4b5" stroke="#b5341a" stroke-width="1.5"/>
  <text x="585" y="322" text-anchor="middle">FC(1, logit)</text>

  <!-- Score output CE -->
  <rect x="540" y="368" width="90" height="28" rx="4" fill="#d4edda" stroke="#28a745" stroke-width="1.5"/>
  <text x="585" y="387" text-anchor="middle">σ(logit) ∈ [0,1]</text>

  <!-- Arrows CE -->
  <line x1="585" y1="132" x2="585" y2="170" stroke="#555" stroke-width="1.5" marker-end="url(#arr)"/>
  <line x1="585" y1="200" x2="585" y2="236" stroke="#555" stroke-width="1.5" marker-end="url(#arr)"/>
  <line x1="585" y1="266" x2="585" y2="302" stroke="#555" stroke-width="1.5" marker-end="url(#arr)"/>
  <line x1="585" y1="332" x2="585" y2="368" stroke="#555" stroke-width="1.5" marker-end="url(#arr)"/>

  <!-- Param count CE -->
  <text x="585" y="412" text-anchor="middle" font-size="11" fill="#555">5,581,313 parameters</text>

  <!-- Arrow marker definition -->
  <defs>
    <marker id="arr" markerWidth="8" markerHeight="8" refX="6" refY="3" orient="auto">
      <path d="M0,0 L0,6 L8,3 z" fill="#555"/>
    </marker>
  </defs>
</svg>